<svg xmlns="http://www.w3.org/2000/svg" viewBox="0 0 260 210" font-family="Optima, Candara, 'Segoe UI', system-ui, sans-serif" text-anchor="middle">
  <g fill="#A87E2B" transform="translate(82,10) scale(1)">
    <path d="M48 12 C54 24 58 32 58 43 C58 54 53 61 48 63 C43 61 38 54 38 43 C38 32 42 24 48 12 Z"/>
    <path d="M29 32 C33 39 35 45 35 52 C35 59 32 63 29 64.5 C26 63 23 59 23 52 C23 45 25 39 29 32 Z"/>
    <path d="M67 32 C71 39 73 45 73 52 C73 59 70 63 67 64.5 C64 63 61 59 61 52 C61 45 63 39 67 32 Z"/>
    <path d="M48 71 C38 63 25 61 13 63 L13 72 C25 70 38 72 48 81 Z"/>
    <path d="M48 71 C58 63 71 61 83 63 L83 72 C71 70 58 72 48 81 Z"/>
  </g>
  <text x="130" y="152" font-size="32" font-weight="600" letter-spacing="5" fill="#2B2519">APSARA</text>
  <text x="131" y="178" font-size="13" font-weight="600" letter-spacing="6" fill="#A87E2B">ELEARNING</text>
</svg>
